<?xml version="1.0" encoding="utf-8"?>
<!-- Generator: Adobe Illustrator 22.0.1, SVG Export Plug-In . SVG Version: 6.00 Build 0)  -->
<svg version="1.1" xmlns="http://www.w3.org/2000/svg" xmlns:xlink="http://www.w3.org/1999/xlink" x="0px" y="0px"
	 viewBox="0 0 629.8 200" style="enable-background:new 0 0 629.8 200;" xml:space="preserve">
<style type="text/css">
	.st0{display:none;}
	.st1{display:inline;}
	.st2{fill:#004F90;}
	.st3{fill:#00B0EA;}
	.st4{fill:#1D1D1B;}
	.st5{fill:#005496;}
	.st6{fill:#00B9F2;}
	.st7{fill:#231F20;}
</style>
<g id="Warstwa_1" class="st0">
	<g class="st1">
		<path class="st2" d="M42.6,71.9c5.7,0,8.8-3.6,8.8-13.5c0-9.8-3.9-12.7-8.8-12.7H22.9v26.2H42.6z M0,25.9h44.6
			c13.4,0,29.7,3.8,29.7,32.2c0,31.8-17.6,34.3-29.7,33.6c-5.6-0.4-21.1-2.5-21.8-2.8V128H0V25.9z"/>
		<path class="st2" d="M117.2,110.7c12.7,0,16.3-1.6,16.3-24c0-23.9-2.9-26.6-16.3-26.6c-13.3,0-16.3,2.7-16.3,26.6
			C100.8,108.6,105.3,110.7,117.2,110.7 M117.2,42.2c29.3,0,38.7,10.7,38.7,44.5c0,31.5-9,42.1-38.7,42.1
			c-29.3,0-38.7-11.7-38.7-42.1C78.4,51.9,88.5,42.2,117.2,42.2"/>
		<path class="st2" d="M163.7,26h22.4v68.2c0,12.3,2.9,15,7.4,16.7c0,0,9.6,3.4,10.7,3.4V128h-18.6c-13.9,0-21.9-7.7-21.9-30.3V26z"
			/>
		<path class="st2" d="M254.6,109.7c7.2,0,11-5.8,11-24.7c0-21.8-4-25.8-11-25.8c-7.8,0-14.1,1-19.9,3.2v42.1
			C239.6,107.6,246.2,109.7,254.6,109.7 M212.4,25.7h22.3v21.6c7.7-3.7,18.6-5.6,25.8-5.6c23.5,0,27.7,17.8,27.7,44.2
			c0,25.8-6.7,43.1-27.7,43.1c-10.1,0-20.3-5.3-25.6-9.6l-4,8.6h-18.4L212.4,25.7L212.4,25.7z"/>
		<path class="st2" d="M299.5,43h18.9l3.5,10.7c5.8-5.8,13.8-11.5,24.3-11.5c3.7,0,7.2,0,9.4,1v21.6c-2.2-0.2-7.4-0.5-12.3-0.5
			c-9.3,0-16,1.6-21.4,9.4V128h-22.4V43z"/>
		<path class="st2" d="M363.7,43h22.4v57c0,8.5,3.8,11.4,9.4,11.4c9,0,13.9-2.2,20.5-7.4V43h22.4v85h-18.1l-4.3-9
			c-8.5,5-14.1,10.4-27.1,10.4c-19.7,0-25.3-13.6-25.3-29.9L363.7,43L363.7,43z"/>
		<polygon class="st2" points="448.2,26.1 470.6,26.1 470.6,71.5 475.3,71.5 499.3,43 527.8,43 495.9,79.9 527.8,128 501.1,128 
			475.3,88.6 470.6,88.6 470.6,128 448.2,128 		"/>
		<path class="st3" d="M551.9,17c-2.3-0.4-2.3-1.4-0.2-2.2l35.4-13.4c2.2-0.8,5.4-0.3,7.2,1.1l31.3,24.3c2.6,2.1,2.5,4,2.5,7.1v38.5
			c0,2.3-1.7,5-3.8,5.9l-37.1,17c-2.1,1-2.8,0.1-1.6-1.8L622,33.4c0.9-1.4,1.7-3-1-3.5L551.9,17z"/>
		<path class="st3" d="M542.7,28.6c0-2.3,1.4-3,3.2-1.5L571.3,49c1.7,1.5,2.1,3.3,2.1,5.6v39.3c0,2.3-1.4,2.9-3,1.3l-24.6-23.6
			c-1.7-1.6-3-4.8-3-7.1V28.6L542.7,28.6L542.7,28.6z"/>
		<path class="st4" d="M30.1,199.5h-5.4l-2.9-7H8.1l-3,7H0l12.7-29.1h4.7L30.1,199.5z M15,176.5l-5,11.6h9.9L15,176.5z"/>
		<path class="st4" d="M64.8,190.5c-2.3,2.1-4.2,3.2-7.3,3.2c-4.5,0-7.9-3.7-7.9-8.6V185c0-4.9,3.4-8.5,7.9-8.5c2.5,0,4.7,1,7.1,3.1
			l0.2,0.2l4.3-5l-0.2-0.2c-3.1-3.1-6.6-4.5-11.4-4.5c-8.6,0-15.1,6.4-15.1,14.9v0.1c0,8.5,6.4,14.9,14.8,14.9c5,0,8.4-1.5,11.8-5.2
			l0.2-0.2l-4.4-4.4V190.5z"/>
		<path class="st4" d="M99.3,180.4L99.3,180.4c0-6.1-4.1-9.7-11-9.7H75.1v28.9h6.8v-9.1h4.5l6,8.9l0.1,0.1h8l-7-10.3
			C97.2,187.7,99.3,184.6,99.3,180.4 M81.9,176.8h5.9c3,0,4.6,1.3,4.6,3.8v0.1c0,2.3-1.7,3.7-4.5,3.7h-6V176.8z"/>
		<polygon class="st4" points="123.4,170.6 123.4,181.9 112.5,181.9 112.5,170.6 105.7,170.6 105.7,199.5 112.5,199.5 112.5,188.2 
			123.4,188.2 123.4,199.5 130.2,199.5 130.2,170.6 		"/>
		<path class="st4" d="M160.2,200c-8.4,0-14.7-6.6-14.7-14.9s6.1-15,14.9-15c5.3,0,8.5,1.9,11.3,4.5l-3.3,3.8
			c-2.3-2.1-4.8-3.6-8.1-3.6c-5.5,0-9.5,4.5-9.5,10.2s4,10.3,9.5,10.3c3.6,0,5.8-1.4,8.3-3.8l3.3,3.3
			C168.9,198.1,165.6,200,160.2,200"/>
		<path class="st4" d="M191,200c-8.9,0-15.1-6.7-15.1-14.9c0-8.2,6.3-15,15.1-15c8.9,0,15.1,6.7,15.1,14.9
			C206.2,193.2,199.9,200,191,200 M191,174.8c-5.7,0-9.7,4.6-9.7,10.2s4.1,10.3,9.8,10.3c5.7,0,9.7-4.6,9.7-10.2
			S196.7,174.8,191,174.8"/>
		<polygon class="st4" points="226.5,192.4 226.4,192.4 217.3,178.9 217.3,199.5 212.3,199.5 212.3,170.6 217.7,170.6 226.5,184.3 
			235.3,170.6 240.7,170.6 240.7,199.5 235.7,199.5 235.7,178.8 		"/>
		<path class="st4" d="M259,190.2h-5.7v9.3h-5.1v-28.9h11.4c6.7,0,11,3.8,11,9.7C270.5,186.9,265.3,190.2,259,190.2 M259.2,175.3
			h-5.9v10.4h5.9c3.8,0,6.2-2.1,6.2-5.2C265.4,177,263,175.3,259.2,175.3"/>
		<path class="st4" d="M300.3,199.5H295l-2.9-7h-13.7l-3,7h-5.2l12.7-29.1h4.7L300.3,199.5z M285.2,176.5l-5,11.6h9.9L285.2,176.5z"
			/>
		<polygon class="st4" points="325.5,170.6 330.5,170.6 330.5,199.5 326.2,199.5 310.3,179 310.3,199.5 305.3,199.5 305.3,170.6 
			310,170.6 325.5,190.6 		"/>
		<polygon class="st4" points="351.5,199.5 346.4,199.5 346.4,188.1 334.9,170.6 340.9,170.6 349,183.4 357.2,170.6 363,170.6 
			351.5,188 		"/>
	</g>
</g>
<g id="Warstwa_3">
</g>
<g id="Warstwa_2">
	<g>
		<path class="st5" d="M10.1,29.9h43.4c13,0,28.9,3.7,28.9,31.3c0,30.9-17.1,33.4-28.9,32.7c-5.4-0.4-20.5-2.4-21.2-2.7v38H10.1
			V29.9L10.1,29.9z M51.5,74.7c5.6,0,8.5-3.5,8.5-13.2c0-9.5-3.8-12.3-8.5-12.3H32.3v25.5H51.5L51.5,74.7z"/>
		<path class="st5" d="M124,45.8c28.5,0,37.7,10.4,37.7,43.3c0,30.7-8.7,40.9-37.7,40.9c-28.5,0-37.7-11.4-37.7-40.9
			C86.3,55.3,96.1,45.8,124,45.8 M124,112.4c12.3,0,15.9-1.6,15.9-23.4c0-23.2-2.8-25.8-15.9-25.8c-12.9,0-15.9,2.6-15.9,25.8
			C108.1,110.4,112.5,112.4,124,112.4"/>
		<path class="st5" d="M169.3,30h21.8v66.3c0,12,2.8,14.6,7.2,16.2c0,0,9.3,3.3,10.4,3.3v13.4h-18.1c-13.5,0-21.3-7.5-21.3-29.4V30
			L169.3,30z"/>
		<path class="st5" d="M216.6,29.7h21.6v21c7.5-3.6,18.1-5.4,25.1-5.4c22.9,0,26.9,17.3,26.9,43c0,25.1-6.5,41.9-26.9,41.9
			c-9.8,0-19.8-5.1-24.9-9.3l-3.9,8.4h-17.9V29.7L216.6,29.7z M257.7,111.5c7,0,10.7-5.6,10.7-24c0-21.2-3.9-25.1-10.7-25.1
			c-7.6,0-13.7,0.9-19.3,3.1v40.9C243,109.4,249.4,111.5,257.7,111.5"/>
		<path class="st5" d="M301.3,46.5h18.4L323,57c5.6-5.6,13.4-11.2,23.7-11.2c3.6,0,7,0,9.2,0.9v21c-2.2-0.2-7.2-0.5-12-0.5
			c-9,0-15.6,1.6-20.9,9.2v52.8h-21.8V46.5L301.3,46.5z"/>
		<path class="st5" d="M363.7,46.5h21.8V102c0,8.2,3.7,11.1,9.2,11.1c8.7,0,13.5-2.2,19.9-7.2V46.5h21.8v82.7h-17.6l-4.2-8.7
			c-8.2,4.8-13.7,10.1-26.3,10.1c-19.2,0-24.6-13.2-24.6-29.1V46.5L363.7,46.5z"/>
		<polygon class="st5" points="445.9,30.2 467.7,30.2 467.7,74.3 472.2,74.3 495.6,46.6 523.3,46.6 492.3,82.5 523.3,129.2 
			497.3,129.2 472.2,90.9 467.7,90.9 467.7,129.2 445.9,129.2 445.9,30.2 		"/>
		<path class="st6" d="M546.8,21.3c-2.2-0.4-2.3-1.4-0.2-2.2l34.5-13c2.1-0.8,5.3-0.3,7,1.1l30.4,23.6c2.5,2.1,2.4,3.9,2.4,6.9v37.5
			c0,2.2-1.7,4.8-3.7,5.8l-36.1,16.5c-2,0.9-2.7,0.1-1.6-1.8l35.4-58.5c0.9-1.4,1.7-2.9-1-3.4L546.8,21.3L546.8,21.3z"/>
		<path class="st6" d="M537.8,32.6c0-2.2,1.4-2.9,3.1-1.4l24.7,21.3c1.7,1.5,2,3.2,2,5.4v38.2c0,2.2-1.3,2.8-2.9,1.3l-23.9-22.9
			c-1.6-1.5-2.9-4.6-2.9-6.9V32.6L537.8,32.6z"/>
		<path class="st7" d="M26.6,170.9l-5.5,12.8h11L26.6,170.9L26.6,170.9z M43.3,196.4h-5.9l-3.2-7.7H19.1l-3.3,7.7h-5.7l14-32.1h5.2
			L43.3,196.4L43.3,196.4z"/>
		<path class="st7" d="M81.6,186.3c-2.5,2.3-4.6,3.6-8,3.6c-5,0-8.8-4.1-8.8-9.5v-0.1c0-5.4,3.8-9.4,8.8-9.4c2.8,0,5.1,1.1,7.8,3.4
			l0.2,0.2l4.8-5.5l-0.2-0.2c-3.4-3.4-7.3-4.9-12.5-4.9c-9.5,0-16.6,7.1-16.6,16.5v0.1c0,9.3,7,16.4,16.3,16.4c5.5,0,9.3-1.6,13-5.7
			l0.2-0.2l-4.8-4.8L81.6,186.3L81.6,186.3z"/>
		<path class="st7" d="M100.4,171.3h6.5c3.3,0,5.1,1.5,5.1,4.1v0.1c0,2.5-1.9,4.1-5,4.1h-6.6V171.3L100.4,171.3z M119.6,175.2
			L119.6,175.2c0-6.7-4.5-10.7-12.1-10.7H92.9v31.9h7.5v-10h4.9l6.6,9.9l0.1,0.1h8.8L113,185C117.3,183.3,119.6,179.8,119.6,175.2"
			/>
		<polygon class="st7" points="146.2,164.5 146.2,176.8 134.2,176.8 134.2,164.5 126.7,164.5 126.7,196.4 134.2,196.4 134.2,183.8 
			146.2,183.8 146.2,196.4 153.7,196.4 153.7,164.5 146.2,164.5 		"/>
		<path class="st7" d="M186.8,196.9c-9.3,0-16.2-7.2-16.2-16.4c0-9.1,6.8-16.5,16.4-16.5c5.9,0,9.4,2.1,12.5,5l-3.6,4.1
			c-2.6-2.4-5.3-4-8.9-4c-6.1,0-10.5,5-10.5,11.3c0,6.3,4.4,11.4,10.5,11.4c3.9,0,6.4-1.6,9.2-4.1l3.6,3.6
			C196.4,194.7,192.7,196.9,186.8,196.9"/>
		<path class="st7" d="M220.8,169.1c-6.3,0-10.7,5.1-10.7,11.3s4.5,11.4,10.8,11.4c6.3,0,10.7-5.1,10.7-11.3
			S227.1,169.1,220.8,169.1 M220.8,196.9c-9.8,0-16.6-7.4-16.6-16.4c0-9,6.9-16.5,16.7-16.5c9.8,0,16.6,7.4,16.6,16.4
			C237.5,189.4,230.6,196.9,220.8,196.9"/>
		<polygon class="st7" points="260,188.5 259.8,188.5 249.8,173.6 249.8,196.4 244.3,196.4 244.3,164.5 250.3,164.5 260,179.5 
			269.7,164.5 275.7,164.5 275.7,196.4 270.1,196.4 270.1,173.5 260,188.5 		"/>
		<path class="st7" d="M296,169.6h-6.5V181h6.5c4.2,0,6.9-2.3,6.9-5.7C302.9,171.5,300.2,169.6,296,169.6 M295.8,186.1h-6.3v10.3
			h-5.6v-31.9h12.6c7.4,0,12.1,4.2,12.1,10.7C308.6,182.4,302.8,186.1,295.8,186.1"/>
		<path class="st7" d="M324.7,170.9l-5.5,12.8h11L324.7,170.9L324.7,170.9z M341.4,196.4h-5.9l-3.2-7.7h-15.1l-3.3,7.7h-5.7l14-32.1
			h5.2L341.4,196.4L341.4,196.4z"/>
		<polygon class="st7" points="369.2,164.5 374.7,164.5 374.7,196.4 370,196.4 352.4,173.7 352.4,196.4 346.9,196.4 346.9,164.5 
			352.1,164.5 369.2,186.5 369.2,164.5 		"/>
		<polygon class="st7" points="397.9,196.4 392.3,196.4 392.3,183.8 379.6,164.5 386.2,164.5 395.1,178.6 404.2,164.5 410.6,164.5 
			397.9,183.6 397.9,196.4 		"/>
	</g>
</g>
</svg>
